<mxfile host="app.diagrams.net" modified="2020-12-09T14:40:11.030Z" agent="5.0 (Macintosh; Intel Mac OS X 10_15_6) AppleWebKit/537.36 (KHTML, like Gecko) Chrome/86.0.4240.193 Safari/537.36" etag="-vYeIXzV_joL9VqdAWEv" version="13.11.0" type="github">
  <diagram id="WnvvnExdfwj_Au-wTADW" name="Page-1">
    <mxGraphModel dx="946" dy="1707" grid="1" gridSize="10" guides="1" tooltips="1" connect="1" arrows="1" fold="1" page="1" pageScale="1" pageWidth="827" pageHeight="1169" math="0" shadow="0">
      <root>
        <mxCell id="0" />
        <mxCell id="1" parent="0" />
        <mxCell id="Qf5Kfg01TeUM80n74LrG-49" value="" style="rounded=1;whiteSpace=wrap;html=1;sketch=1;" vertex="1" parent="1">
          <mxGeometry x="60" y="340" width="160" height="260" as="geometry" />
        </mxCell>
        <mxCell id="Qf5Kfg01TeUM80n74LrG-1" style="edgeStyle=orthogonalEdgeStyle;rounded=0;sketch=1;orthogonalLoop=1;jettySize=auto;html=1;exitX=1;exitY=0.25;exitDx=0;exitDy=0;entryX=0;entryY=0.25;entryDx=0;entryDy=0;" edge="1" parent="1" target="Qf5Kfg01TeUM80n74LrG-13">
          <mxGeometry relative="1" as="geometry">
            <mxPoint x="221" y="404.5" as="sourcePoint" />
          </mxGeometry>
        </mxCell>
        <mxCell id="Qf5Kfg01TeUM80n74LrG-2" value="" style="edgeStyle=orthogonalEdgeStyle;rounded=0;orthogonalLoop=1;jettySize=auto;html=1;sketch=1;" edge="1" parent="1" source="Qf5Kfg01TeUM80n74LrG-3" target="Qf5Kfg01TeUM80n74LrG-7">
          <mxGeometry relative="1" as="geometry" />
        </mxCell>
        <mxCell id="Qf5Kfg01TeUM80n74LrG-3" value="最小记录" style="rounded=1;whiteSpace=wrap;html=1;sketch=1;fillColor=#f5f5f5;strokeColor=#666666;fontColor=#333333;" vertex="1" parent="1">
          <mxGeometry x="86" y="354.5" width="110" height="30" as="geometry" />
        </mxCell>
        <mxCell id="Qf5Kfg01TeUM80n74LrG-4" value="" style="edgeStyle=orthogonalEdgeStyle;rounded=0;orthogonalLoop=1;jettySize=auto;html=1;sketch=1;" edge="1" parent="1" source="Qf5Kfg01TeUM80n74LrG-5" target="Qf5Kfg01TeUM80n74LrG-10">
          <mxGeometry relative="1" as="geometry" />
        </mxCell>
        <mxCell id="Qf5Kfg01TeUM80n74LrG-5" value="bc 17 5" style="rounded=1;whiteSpace=wrap;html=1;sketch=1;fillColor=#dae8fc;strokeColor=#6c8ebf;" vertex="1" parent="1">
          <mxGeometry x="86" y="504.5" width="110" height="30" as="geometry" />
        </mxCell>
        <mxCell id="Qf5Kfg01TeUM80n74LrG-6" value="" style="edgeStyle=orthogonalEdgeStyle;rounded=0;orthogonalLoop=1;jettySize=auto;html=1;sketch=1;" edge="1" parent="1" source="Qf5Kfg01TeUM80n74LrG-7" target="Qf5Kfg01TeUM80n74LrG-9">
          <mxGeometry relative="1" as="geometry" />
        </mxCell>
        <mxCell id="Qf5Kfg01TeUM80n74LrG-7" value="aa 10 1" style="rounded=1;whiteSpace=wrap;html=1;sketch=1;fillColor=#dae8fc;strokeColor=#6c8ebf;" vertex="1" parent="1">
          <mxGeometry x="86" y="404.5" width="110" height="30" as="geometry" />
        </mxCell>
        <mxCell id="Qf5Kfg01TeUM80n74LrG-8" value="" style="edgeStyle=orthogonalEdgeStyle;rounded=0;orthogonalLoop=1;jettySize=auto;html=1;sketch=1;" edge="1" parent="1" source="Qf5Kfg01TeUM80n74LrG-9" target="Qf5Kfg01TeUM80n74LrG-5">
          <mxGeometry relative="1" as="geometry" />
        </mxCell>
        <mxCell id="Qf5Kfg01TeUM80n74LrG-9" value="bb 15 6" style="rounded=1;whiteSpace=wrap;html=1;sketch=1;fillColor=#dae8fc;strokeColor=#6c8ebf;" vertex="1" parent="1">
          <mxGeometry x="86" y="454.5" width="110" height="30" as="geometry" />
        </mxCell>
        <mxCell id="Qf5Kfg01TeUM80n74LrG-10" value="最大记录" style="rounded=1;whiteSpace=wrap;html=1;sketch=1;fillColor=#f5f5f5;strokeColor=#666666;fontColor=#333333;" vertex="1" parent="1">
          <mxGeometry x="86" y="554" width="110" height="30" as="geometry" />
        </mxCell>
        <mxCell id="Qf5Kfg01TeUM80n74LrG-11" style="edgeStyle=orthogonalEdgeStyle;rounded=0;sketch=1;orthogonalLoop=1;jettySize=auto;html=1;exitX=1;exitY=0.25;exitDx=0;exitDy=0;entryX=0;entryY=0.25;entryDx=0;entryDy=0;" edge="1" parent="1" source="Qf5Kfg01TeUM80n74LrG-13" target="Qf5Kfg01TeUM80n74LrG-24">
          <mxGeometry relative="1" as="geometry" />
        </mxCell>
        <mxCell id="Qf5Kfg01TeUM80n74LrG-12" style="edgeStyle=orthogonalEdgeStyle;rounded=0;sketch=1;orthogonalLoop=1;jettySize=auto;html=1;exitX=0;exitY=0.75;exitDx=0;exitDy=0;entryX=1;entryY=0.75;entryDx=0;entryDy=0;" edge="1" parent="1" source="Qf5Kfg01TeUM80n74LrG-13">
          <mxGeometry relative="1" as="geometry">
            <mxPoint x="221" y="534.5" as="targetPoint" />
          </mxGeometry>
        </mxCell>
        <mxCell id="Qf5Kfg01TeUM80n74LrG-13" value="" style="rounded=1;whiteSpace=wrap;html=1;sketch=1;" vertex="1" parent="1">
          <mxGeometry x="310" y="339.5" width="160" height="260" as="geometry" />
        </mxCell>
        <mxCell id="Qf5Kfg01TeUM80n74LrG-14" value="" style="edgeStyle=orthogonalEdgeStyle;rounded=0;orthogonalLoop=1;jettySize=auto;html=1;sketch=1;" edge="1" parent="1" source="Qf5Kfg01TeUM80n74LrG-15" target="Qf5Kfg01TeUM80n74LrG-19">
          <mxGeometry relative="1" as="geometry" />
        </mxCell>
        <mxCell id="Qf5Kfg01TeUM80n74LrG-15" value="最小记录" style="rounded=1;whiteSpace=wrap;html=1;sketch=1;fillColor=#f5f5f5;strokeColor=#666666;fontColor=#333333;" vertex="1" parent="1">
          <mxGeometry x="335" y="355" width="110" height="30" as="geometry" />
        </mxCell>
        <mxCell id="Qf5Kfg01TeUM80n74LrG-16" value="" style="edgeStyle=orthogonalEdgeStyle;rounded=0;orthogonalLoop=1;jettySize=auto;html=1;sketch=1;" edge="1" parent="1" source="Qf5Kfg01TeUM80n74LrG-17" target="Qf5Kfg01TeUM80n74LrG-22">
          <mxGeometry relative="1" as="geometry" />
        </mxCell>
        <mxCell id="Qf5Kfg01TeUM80n74LrG-17" value="dd 12 2" style="rounded=1;whiteSpace=wrap;html=1;sketch=1;fillColor=#dae8fc;strokeColor=#6c8ebf;" vertex="1" parent="1">
          <mxGeometry x="335" y="505" width="110" height="30" as="geometry" />
        </mxCell>
        <mxCell id="Qf5Kfg01TeUM80n74LrG-18" value="" style="edgeStyle=orthogonalEdgeStyle;rounded=0;orthogonalLoop=1;jettySize=auto;html=1;sketch=1;" edge="1" parent="1" source="Qf5Kfg01TeUM80n74LrG-19" target="Qf5Kfg01TeUM80n74LrG-21">
          <mxGeometry relative="1" as="geometry" />
        </mxCell>
        <mxCell id="Qf5Kfg01TeUM80n74LrG-19" value="cb 9 3" style="rounded=1;whiteSpace=wrap;html=1;sketch=1;fillColor=#dae8fc;strokeColor=#6c8ebf;" vertex="1" parent="1">
          <mxGeometry x="335" y="405" width="110" height="30" as="geometry" />
        </mxCell>
        <mxCell id="Qf5Kfg01TeUM80n74LrG-20" value="" style="edgeStyle=orthogonalEdgeStyle;rounded=0;orthogonalLoop=1;jettySize=auto;html=1;sketch=1;" edge="1" parent="1" source="Qf5Kfg01TeUM80n74LrG-21" target="Qf5Kfg01TeUM80n74LrG-17">
          <mxGeometry relative="1" as="geometry" />
        </mxCell>
        <mxCell id="Qf5Kfg01TeUM80n74LrG-21" value="cb 15 4" style="rounded=1;whiteSpace=wrap;html=1;sketch=1;fillColor=#dae8fc;strokeColor=#6c8ebf;" vertex="1" parent="1">
          <mxGeometry x="335" y="455" width="110" height="30" as="geometry" />
        </mxCell>
        <mxCell id="Qf5Kfg01TeUM80n74LrG-22" value="最大记录" style="rounded=1;whiteSpace=wrap;html=1;sketch=1;fillColor=#f5f5f5;strokeColor=#666666;fontColor=#333333;" vertex="1" parent="1">
          <mxGeometry x="335" y="554.5" width="110" height="30" as="geometry" />
        </mxCell>
        <mxCell id="Qf5Kfg01TeUM80n74LrG-23" style="edgeStyle=orthogonalEdgeStyle;rounded=0;sketch=1;orthogonalLoop=1;jettySize=auto;html=1;exitX=0;exitY=0.75;exitDx=0;exitDy=0;entryX=1;entryY=0.75;entryDx=0;entryDy=0;" edge="1" parent="1" source="Qf5Kfg01TeUM80n74LrG-24" target="Qf5Kfg01TeUM80n74LrG-13">
          <mxGeometry relative="1" as="geometry" />
        </mxCell>
        <mxCell id="Qf5Kfg01TeUM80n74LrG-24" value="" style="rounded=1;whiteSpace=wrap;html=1;sketch=1;" vertex="1" parent="1">
          <mxGeometry x="560" y="339.5" width="160" height="260" as="geometry" />
        </mxCell>
        <mxCell id="Qf5Kfg01TeUM80n74LrG-25" value="" style="edgeStyle=orthogonalEdgeStyle;rounded=0;orthogonalLoop=1;jettySize=auto;html=1;sketch=1;" edge="1" parent="1" source="Qf5Kfg01TeUM80n74LrG-26" target="Qf5Kfg01TeUM80n74LrG-28">
          <mxGeometry relative="1" as="geometry" />
        </mxCell>
        <mxCell id="Qf5Kfg01TeUM80n74LrG-26" value="最小记录" style="rounded=1;whiteSpace=wrap;html=1;sketch=1;fillColor=#f5f5f5;strokeColor=#666666;fontColor=#333333;" vertex="1" parent="1">
          <mxGeometry x="585" y="374" width="110" height="30" as="geometry" />
        </mxCell>
        <mxCell id="Qf5Kfg01TeUM80n74LrG-27" value="" style="edgeStyle=orthogonalEdgeStyle;rounded=0;orthogonalLoop=1;jettySize=auto;html=1;sketch=1;" edge="1" parent="1" source="Qf5Kfg01TeUM80n74LrG-28" target="Qf5Kfg01TeUM80n74LrG-30">
          <mxGeometry relative="1" as="geometry" />
        </mxCell>
        <mxCell id="Qf5Kfg01TeUM80n74LrG-28" value="dd 12 8" style="rounded=1;whiteSpace=wrap;html=1;sketch=1;fillColor=#dae8fc;strokeColor=#6c8ebf;" vertex="1" parent="1">
          <mxGeometry x="585" y="424" width="110" height="30" as="geometry" />
        </mxCell>
        <mxCell id="Qf5Kfg01TeUM80n74LrG-29" value="" style="edgeStyle=orthogonalEdgeStyle;rounded=0;orthogonalLoop=1;jettySize=auto;html=1;sketch=1;" edge="1" parent="1" source="Qf5Kfg01TeUM80n74LrG-30">
          <mxGeometry relative="1" as="geometry">
            <mxPoint x="640" y="524" as="targetPoint" />
          </mxGeometry>
        </mxCell>
        <mxCell id="Qf5Kfg01TeUM80n74LrG-30" value="dd 15 7" style="rounded=1;whiteSpace=wrap;html=1;sketch=1;fillColor=#dae8fc;strokeColor=#6c8ebf;" vertex="1" parent="1">
          <mxGeometry x="585" y="474" width="110" height="30" as="geometry" />
        </mxCell>
        <mxCell id="Qf5Kfg01TeUM80n74LrG-31" value="最大记录" style="rounded=1;whiteSpace=wrap;html=1;sketch=1;fillColor=#f5f5f5;strokeColor=#666666;fontColor=#333333;" vertex="1" parent="1">
          <mxGeometry x="584" y="529.5" width="110" height="30" as="geometry" />
        </mxCell>
        <mxCell id="Qf5Kfg01TeUM80n74LrG-32" value="页1" style="text;html=1;strokeColor=none;fillColor=none;align=center;verticalAlign=middle;whiteSpace=wrap;rounded=0;sketch=1;" vertex="1" parent="1">
          <mxGeometry x="121" y="300" width="40" height="20" as="geometry" />
        </mxCell>
        <mxCell id="Qf5Kfg01TeUM80n74LrG-33" value="页2" style="text;html=1;strokeColor=none;fillColor=none;align=center;verticalAlign=middle;whiteSpace=wrap;rounded=0;sketch=1;" vertex="1" parent="1">
          <mxGeometry x="370" y="300" width="40" height="20" as="geometry" />
        </mxCell>
        <mxCell id="Qf5Kfg01TeUM80n74LrG-34" value="页3" style="text;html=1;strokeColor=none;fillColor=none;align=center;verticalAlign=middle;whiteSpace=wrap;rounded=0;sketch=1;" vertex="1" parent="1">
          <mxGeometry x="619" y="300" width="40" height="20" as="geometry" />
        </mxCell>
        <mxCell id="Qf5Kfg01TeUM80n74LrG-35" value="" style="rounded=1;whiteSpace=wrap;html=1;sketch=1;" vertex="1" parent="1">
          <mxGeometry x="310" y="-20.5" width="160" height="260" as="geometry" />
        </mxCell>
        <mxCell id="Qf5Kfg01TeUM80n74LrG-36" value="" style="edgeStyle=orthogonalEdgeStyle;rounded=0;orthogonalLoop=1;jettySize=auto;html=1;sketch=1;" edge="1" parent="1" source="Qf5Kfg01TeUM80n74LrG-37" target="Qf5Kfg01TeUM80n74LrG-43">
          <mxGeometry relative="1" as="geometry" />
        </mxCell>
        <mxCell id="Qf5Kfg01TeUM80n74LrG-37" value="最小记录" style="rounded=1;whiteSpace=wrap;html=1;sketch=1;fillColor=#f5f5f5;strokeColor=#666666;fontColor=#333333;" vertex="1" parent="1">
          <mxGeometry x="335" y="-5" width="110" height="30" as="geometry" />
        </mxCell>
        <mxCell id="Qf5Kfg01TeUM80n74LrG-38" value="" style="edgeStyle=orthogonalEdgeStyle;rounded=0;orthogonalLoop=1;jettySize=auto;html=1;sketch=1;" edge="1" parent="1" source="Qf5Kfg01TeUM80n74LrG-40" target="Qf5Kfg01TeUM80n74LrG-47">
          <mxGeometry relative="1" as="geometry" />
        </mxCell>
        <mxCell id="Qf5Kfg01TeUM80n74LrG-39" style="edgeStyle=orthogonalEdgeStyle;rounded=0;orthogonalLoop=1;jettySize=auto;html=1;exitX=1;exitY=0.5;exitDx=0;exitDy=0;entryX=0.5;entryY=0;entryDx=0;entryDy=0;sketch=1;" edge="1" parent="1" source="Qf5Kfg01TeUM80n74LrG-40" target="Qf5Kfg01TeUM80n74LrG-24">
          <mxGeometry relative="1" as="geometry" />
        </mxCell>
        <mxCell id="Qf5Kfg01TeUM80n74LrG-40" value="(dd 12) 3" style="rounded=1;whiteSpace=wrap;html=1;sketch=1;fillColor=#dae8fc;strokeColor=#6c8ebf;" vertex="1" parent="1">
          <mxGeometry x="335" y="145" width="110" height="30" as="geometry" />
        </mxCell>
        <mxCell id="Qf5Kfg01TeUM80n74LrG-41" value="" style="edgeStyle=orthogonalEdgeStyle;rounded=0;orthogonalLoop=1;jettySize=auto;html=1;sketch=1;" edge="1" parent="1" source="Qf5Kfg01TeUM80n74LrG-43" target="Qf5Kfg01TeUM80n74LrG-46">
          <mxGeometry relative="1" as="geometry" />
        </mxCell>
        <mxCell id="Qf5Kfg01TeUM80n74LrG-42" style="edgeStyle=orthogonalEdgeStyle;rounded=0;orthogonalLoop=1;jettySize=auto;html=1;exitX=0;exitY=0.5;exitDx=0;exitDy=0;entryX=0.5;entryY=0;entryDx=0;entryDy=0;sketch=1;" edge="1" parent="1" source="Qf5Kfg01TeUM80n74LrG-43">
          <mxGeometry relative="1" as="geometry">
            <mxPoint x="141" y="339.5" as="targetPoint" />
          </mxGeometry>
        </mxCell>
        <mxCell id="Qf5Kfg01TeUM80n74LrG-43" value="(aa 10) 1" style="rounded=1;whiteSpace=wrap;html=1;sketch=1;fillColor=#dae8fc;strokeColor=#6c8ebf;" vertex="1" parent="1">
          <mxGeometry x="335" y="45" width="110" height="30" as="geometry" />
        </mxCell>
        <mxCell id="Qf5Kfg01TeUM80n74LrG-44" value="" style="edgeStyle=orthogonalEdgeStyle;rounded=0;orthogonalLoop=1;jettySize=auto;html=1;sketch=1;" edge="1" parent="1" source="Qf5Kfg01TeUM80n74LrG-46" target="Qf5Kfg01TeUM80n74LrG-40">
          <mxGeometry relative="1" as="geometry" />
        </mxCell>
        <mxCell id="Qf5Kfg01TeUM80n74LrG-45" style="edgeStyle=orthogonalEdgeStyle;rounded=0;orthogonalLoop=1;jettySize=auto;html=1;exitX=0;exitY=0.5;exitDx=0;exitDy=0;entryX=0.5;entryY=0;entryDx=0;entryDy=0;sketch=1;" edge="1" parent="1" source="Qf5Kfg01TeUM80n74LrG-46" target="Qf5Kfg01TeUM80n74LrG-13">
          <mxGeometry relative="1" as="geometry">
            <Array as="points">
              <mxPoint x="230" y="110" />
              <mxPoint x="230" y="280" />
              <mxPoint x="390" y="280" />
            </Array>
          </mxGeometry>
        </mxCell>
        <mxCell id="Qf5Kfg01TeUM80n74LrG-46" value="(cb 9) 2" style="rounded=1;whiteSpace=wrap;html=1;sketch=1;fillColor=#dae8fc;strokeColor=#6c8ebf;" vertex="1" parent="1">
          <mxGeometry x="335" y="95" width="110" height="30" as="geometry" />
        </mxCell>
        <mxCell id="Qf5Kfg01TeUM80n74LrG-47" value="最大记录" style="rounded=1;whiteSpace=wrap;html=1;sketch=1;fillColor=#f5f5f5;strokeColor=#666666;fontColor=#333333;" vertex="1" parent="1">
          <mxGeometry x="335" y="194.5" width="110" height="30" as="geometry" />
        </mxCell>
        <mxCell id="Qf5Kfg01TeUM80n74LrG-48" value="页5" style="text;html=1;strokeColor=none;fillColor=none;align=center;verticalAlign=middle;whiteSpace=wrap;rounded=0;sketch=1;" vertex="1" parent="1">
          <mxGeometry x="370" y="-60" width="40" height="20" as="geometry" />
        </mxCell>
      </root>
    </mxGraphModel>
  </diagram>
</mxfile>
